<svg xmlns="http://www.w3.org/2000/svg" viewBox="3556 16 58.603 30">
  <defs>
    <style>
      .cls-1 {
        fill: #0a0e1f;
      }
    </style>
  </defs>
  <g id="シンボル_45" data-name="シンボル 45" transform="translate(3397 -19)">
    <g id="グループ化_437" data-name="グループ化 437" transform="translate(158.981 34.955)">
      <path id="パス_1521" data-name="パス 1521" class="cls-1" d="M25.686,75.056v.9a1.354,1.354,0,0,1-.1.555.975.975,0,0,1-.229.327.814.814,0,0,1-.31.163,1.221,1.221,0,0,1-.327.049c-.359,0-.588-.082-.7-.278a1.47,1.47,0,0,1-.212-.833l-.033-6.813a2.161,2.161,0,0,1,.2-1c.033-.082.163-.31.735-.31h0a.8.8,0,0,1,.67.31,1.3,1.3,0,0,1,.278.817v.882l2.4-.016v-1a3.481,3.481,0,0,0-.261-1.372,3.315,3.315,0,0,0-.7-1.095,3.172,3.172,0,0,0-1.062-.7,3.507,3.507,0,0,0-1.307-.245,3.346,3.346,0,0,0-1.356.261,3.172,3.172,0,0,0-1.062.7,3.132,3.132,0,0,0-.686,1.062,3.2,3.2,0,0,0-.229,1.307l.033,7.336a3.6,3.6,0,0,0,.327,1.617,3.11,3.11,0,0,0,.817,1.046,2.85,2.85,0,0,0,1.111.556,4.674,4.674,0,0,0,1.144.147h.016a3.1,3.1,0,0,0,1.291-.278,3.376,3.376,0,0,0,1.716-1.8,3.4,3.4,0,0,0,.245-1.274V75.023Z" transform="translate(-17.877 -54.677)"/>
      <path id="パス_1522" data-name="パス 1522" class="cls-1" d="M110.423,54.616,107.4,68.455l2.418-.016.555-2.876,2.206-.016.572,2.859,2.418-.016L112.4,54.6Zm1.683,8.659h-1.323l.637-3.4Z" transform="translate(-89.837 -45.641)"/>
      <path id="パス_1523" data-name="パス 1523" class="cls-1" d="M205.777,53.892a.607.607,0,0,1-.31.294,1.377,1.377,0,0,1-.654.114H204.8a.965.965,0,0,1-.833-.31,1.305,1.305,0,0,1-.261-.8v-.85l-2.4.016v.964a3.471,3.471,0,0,0,.278,1.356,3.51,3.51,0,0,0,.735,1.078,3.719,3.719,0,0,0,1.111.719,3.8,3.8,0,0,0,1.372.261h.016a3.857,3.857,0,0,0,1.65-.327,2.879,2.879,0,0,0,1.111-.9,3.49,3.49,0,0,0,.588-1.323,7.237,7.237,0,0,0,.163-1.617,10.915,10.915,0,0,0-.082-1.34,3.475,3.475,0,0,0-.31-1.078,2.806,2.806,0,0,0-.67-.85,3.836,3.836,0,0,0-1.095-.6l-1.47-.572a2.709,2.709,0,0,1-.539-.278.993.993,0,0,1-.261-.261.849.849,0,0,1-.114-.376c-.016-.18-.033-.392-.033-.637a3.622,3.622,0,0,1,.049-.6,1.264,1.264,0,0,1,.163-.457.772.772,0,0,1,.31-.294.993.993,0,0,1,.523-.114h.016a.922.922,0,0,1,.833.359,1.785,1.785,0,0,1,.278,1v.67l2.4-.016V45.935a3.056,3.056,0,0,0-.245-1.193,3.122,3.122,0,0,0-.7-1.029,3.4,3.4,0,0,0-1.095-.735,3.512,3.512,0,0,0-1.389-.278h-.016a3.61,3.61,0,0,0-1.552.327,3,3,0,0,0-1.095.85,3.47,3.47,0,0,0-.654,1.242,5.067,5.067,0,0,0-.212,1.5,4.829,4.829,0,0,0,.457,2.189,3.314,3.314,0,0,0,1.8,1.454l1.372.555a4.211,4.211,0,0,1,.539.261.756.756,0,0,1,.261.245,1.082,1.082,0,0,1,.131.441,6.059,6.059,0,0,1,.033.833c0,.294-.016.556-.033.8A1.926,1.926,0,0,1,205.777,53.892Z" transform="translate(-168.395 -35.686)"/>
      <path id="パス_1524" data-name="パス 1524" class="cls-1" d="M296.367,45.338l-.033-5.931,1.879-.016.016,5.947,2.4-.016L300.566,31.5l-2.385.016.016,5.7-1.863.016-.033-5.718-2.4.016.065,13.822Z" transform="translate(-245.866 -26.316)"/>
      <rect id="長方形_355" data-name="長方形 355" class="cls-1" width="28.902" height="2.287" transform="translate(0.019 4.204) rotate(-8.274)"/>
      <rect id="長方形_356" data-name="長方形 356" class="cls-1" width="28.902" height="2.287" transform="translate(29.691 27.782) rotate(-8.274)"/>
    </g>
  </g>
</svg>
